<?xml version="1.0" ?><svg width="512px" height="512px" viewBox="0 0 512 512" id="Layer_1" style="enable-background:new 0 0 512 512;" version="1.1" xml:space="preserve" xmlns="http://www.w3.org/2000/svg" xmlns:xlink="http://www.w3.org/1999/xlink"><style type="text/css">
	.st0{fill:#7BDE9E;}
	.st1{fill:#50D27E;}
	.st2{fill:#A7E9BF;}
	.st3{fill:#FFFFFF;}
	.st4{fill:#EDEDED;}
	.st5{fill:#333333;}
	.st6{fill:#FBB381;}
	.st7{fill:#FA9957;}
	.st8{fill:#FCCCAB;}
	.st9{fill:#A8B1B3;}
	.st10{fill:#D3D8D9;}
</style><g><g><g><g><path class="st0" d="M182.1,4c98.4,0,178.1,79.7,178.1,178.1c0,98.4-79.7,178.1-178.1,178.1C83.7,360.2,4,280.5,4,182.1      C4,83.7,83.7,4,182.1,4z"/></g><g><path class="st1" d="M360.2,182.1c0,98.4-79.8,178.1-178.1,178.1c-56.4,0-106.6-26.2-139.3-67c30.4,24.3,69.1,38.8,111.1,38.8      c98.4,0,178.1-79.8,178.1-178.1c0-42-14.6-80.7-38.9-111.2C334,75.4,360.2,125.7,360.2,182.1z"/></g><g><path class="st2" d="M321.3,71c-30.4-24.3-69-38.8-111-38.8c-98.4,0-178.1,79.8-178.1,178.1c0,42,14.6,80.6,38.9,111.1      C30.2,288.8,4,238.5,4,182.1C4,83.7,83.8,4,182.1,4C238.5,4,288.7,30.2,321.3,71z"/></g><g><path class="st3" d="M182.1,35.4c81,0,146.7,65.7,146.7,146.8c0,81-65.7,146.7-146.7,146.7c-81.1,0-146.8-65.7-146.8-146.7      C35.4,101.1,101.1,35.4,182.1,35.4z"/></g><g><path class="st4" d="M328.9,182.1c0,81.1-65.7,146.7-146.7,146.7c-51.4,0-96.6-26.4-122.8-66.4c23.1,15.2,50.8,24,80.5,24      c81,0,146.7-65.7,146.7-146.7c0-29.7-8.8-57.4-24-80.5C302.5,85.6,328.9,130.7,328.9,182.1z"/></g><g><path class="st5" d="M182.1,332.9c-83.1,0-150.8-67.6-150.8-150.7C31.4,99,99,31.4,182.1,31.4c40.3,0,78.1,15.7,106.6,44.2      c28.5,28.5,44.1,66.3,44.1,106.6C332.9,265.3,265.3,332.9,182.1,332.9z M182.1,39.4c-78.7,0-142.8,64.1-142.8,142.8      c0,78.7,64.1,142.7,142.8,142.7c78.7,0,142.7-64,142.7-142.7c0-38.1-14.8-74-41.8-101C256.1,54.2,220.3,39.4,182.1,39.4z"/></g><g><path class="st3" d="M360.7,319c-0.4,0.3-0.7,0.6-1,0.9l-39.7,39.8c-0.4,0.4-0.6,0.7-0.9,1.1l-33.5-33.5      c16.1-11.5,30.2-25.6,41.7-41.6L360.7,319z"/></g><g><path class="st6" d="M503.9,462L462,503.9c-5.5,5.5-14.4,5.5-19.9,0L319.5,381.3c-7.1-7.1-7.1-18.6,0-25.6l36.2-36.2      c7.1-7.1,18.5-7.1,25.6,0l122.7,122.7C509.4,447.6,509.4,456.5,503.9,462z"/></g><g><path class="st7" d="M503.9,462L462,503.9c-5.5,5.5-14.4,5.5-19.9,0l-26.1-26.1c5.5,5.5,14.4,5.5,19.9,0l41.9-41.9      c5.5-5.5,5.5-14.4,0-19.8l26.1,26.1C509.4,447.6,509.4,456.5,503.9,462z"/></g><g><path class="st8" d="M407.3,345.5c-7.1-7.1-18.5-7.1-25.6,0l-36.2,36.2c-7,7-7.1,18.4-0.1,25.5l-26-26c-7.1-7.1-7.1-18.6,0-25.6      l36.2-36.2c7.1-7.1,18.5-7.1,25.6,0L407.3,345.5z"/></g><path class="st5" d="M506.7,439.3L384,316.6c-6.3-6.3-16-8.4-24.6-4.5L332.3,285c20.1-29.3,31.9-64.7,31.9-102.8     C364.2,81.7,282.5,0,182.1,0C81.7,0,0,81.7,0,182.2c0,100.4,81.7,182.1,182.1,182.1c38.1,0,73.6-11.8,102.8-31.9l27.1,27.1     c-3.6,8.1-2.1,18,4.5,24.7l122.7,122.6c7,7,18.5,7,25.5,0l41.9-41.9c0,0,0,0,0,0C513.8,457.8,513.7,446.3,506.7,439.3z M8,182.2     C8,86.1,86.1,8,182.1,8c96,0,174.1,78.1,174.1,174.1c0,96-78.1,174.1-174.1,174.1C86.1,356.2,8,278.1,8,182.2z M327.6,291.6     l25.1,25.1l-36,36l-25.1-25.1C305.2,317.3,317.3,305.2,327.6,291.6z M501.1,459.2l-41.9,41.9c-3.9,3.9-10.3,3.9-14.2,0     L322.3,378.5c-5.5-5.6-5.5-14.5,0-20l36.2-36.2c5.5-5.5,14.5-5.5,19.9,0L501.1,445C505,448.9,505,455.2,501.1,459.2z"/></g></g><g><g><path class="st9" d="M243.9,121c0,25.9-15.8,47.9-38.4,57.2v45.4l-9.8,9.9l9.8,9.8l-9.8,9.9l9.8,9.8l-9.8,9.9l9.2,9.3L182,305.1     l-22.6-22.6V178.5c-22.9-9.1-39-31.4-39-57.5c0-34.1,27.7-61.8,61.8-61.8C216.2,59.2,243.9,86.9,243.9,121z"/></g><g><path class="st10" d="M243.9,121c0,25.9-15.8,48-38.4,57.2v45.4l-9.8,9.9l9.8,9.8l-9.8,9.9l9.8,9.8l-9.8,9.9l9.2,9.2L182,305     l-9.7-9.7l13.1-13.1l-9.2-9.2l9.8-9.9l-9.8-9.8l9.8-9.9l-9.8-9.8l9.8-9.9v-43.2c0-4.8,2.8-9,7-11.2c18.8-9.6,31.4-25.2,31.4-48.3     c0-30.8-22.6-56.4-52.1-61.1c3.2-0.5,6.4-0.8,9.7-0.8C216.2,59.2,243.9,86.9,243.9,121z"/></g><g><path class="st5" d="M182,309.1c-1,0-2-0.4-2.8-1.2l-22.6-22.6c-0.8-0.8-1.2-1.8-1.2-2.8V181.2c-23.8-10.6-39-33.9-39-60.1     c0-36.3,29.5-65.8,65.8-65.8c36.3,0,65.8,29.5,65.8,65.8c0,25.9-15,49.1-38.4,59.8v42.8c0,1.1-0.4,2.1-1.2,2.8l-7,7.1l7,7     c1.6,1.6,1.6,4.1,0,5.6l-7,7.1l7,7c1.6,1.6,1.6,4.1,0,5.6l-7,7.1l6.4,6.4c1.6,1.6,1.5,4.1,0,5.6l-22.9,22.9     C184.1,308.7,183,309.1,182,309.1z M163.4,280.8l18.6,18.6l17.2-17.2l-6.4-6.4c-1.5-1.6-1.5-4.1,0-5.6l7-7.1l-7-7     c-1.6-1.6-1.6-4.1,0-5.6l7-7.1l-7-7c-1.6-1.6-1.6-4.1,0-5.6l8.7-8.7v-43.8c0-1.6,1-3.1,2.5-3.7c21.8-8.9,35.9-30,35.9-53.5     c0-31.9-25.9-57.8-57.8-57.8c-31.8,0-57.8,25.9-57.8,57.8c0,23.8,14.3,44.9,36.5,53.8c1.5,0.6,2.5,2.1,2.5,3.7V280.8z"/></g><g><path class="st3" d="M216.5,121c0,19-15.4,34.3-34.3,34.3c-19,0-34.3-15.4-34.3-34.3c0-19,15.4-34.3,34.3-34.3     C201.1,86.7,216.5,102,216.5,121z"/><path class="st5" d="M182.1,159.3c-21.1,0-38.3-17.2-38.3-38.3c0-21.1,17.2-38.3,38.3-38.3c21.1,0,38.3,17.2,38.3,38.3     C220.5,142.2,203.3,159.3,182.1,159.3z M182.1,90.7c-16.7,0-30.3,13.6-30.3,30.3c0,16.7,13.6,30.3,30.3,30.3     c16.7,0,30.3-13.6,30.3-30.3C212.5,104.3,198.8,90.7,182.1,90.7z"/></g></g></g></svg>