<?xml version="1.0" encoding="iso-8859-1"?>
<!-- Generator: Adobe Illustrator 19.0.0, SVG Export Plug-In . SVG Version: 6.00 Build 0)  -->
<svg version="1.1" id="Layer_1" xmlns="http://www.w3.org/2000/svg" xmlns:xlink="http://www.w3.org/1999/xlink" x="0px" y="0px"
	 viewBox="0 0 512.001 512.001" style="enable-background:new 0 0 512.001 512.001;" xml:space="preserve">
<path style="fill:#B3404A;" d="M427.826,365.485c-7.149-2.276-14.8,1.68-17.075,8.836
	c-21.012,66.089-81.768,110.492-151.182,110.492c-87.457,0-158.609-71.151-158.609-158.61c0-87.457,71.151-158.609,158.609-158.609
	c69.655,0,132.173,46.572,152.035,113.255c2.144,7.195,9.717,11.292,16.908,9.147c7.195-2.144,11.291-9.714,9.147-16.908
	c-9.929-33.337-29.539-63.678-55.779-86.705v-60.502C381.88,56.47,325.41,0,256,0c-15.482,0-30.605,2.781-44.951,8.268
	c-7.013,2.681-10.523,10.539-7.844,17.552c2.682,7.012,10.539,10.526,17.552,7.842c11.234-4.296,23.092-6.475,35.242-6.475
	c54.419,0,98.694,44.274,98.694,98.694v40.708c-28.664-17.166-61.165-26.183-95.124-26.183c-37.757,0-72.912,11.332-102.265,30.757
	v-45.281c0-19.692,5.779-38.7,16.711-54.969c4.188-6.231,2.53-14.677-3.7-18.864c-6.231-4.188-14.679-2.533-18.865,3.7
	c-13.957,20.767-21.333,45.02-21.333,70.133v67.189c-34.729,33.778-56.344,80.974-56.344,133.132
	c0,102.448,83.346,185.798,185.796,185.798c40.231,0,78.516-12.649,110.717-36.578c31.565-23.455,54.517-55.567,66.374-92.863
	C438.936,375.403,434.98,367.759,427.826,365.485z"/>
<circle style="fill:#F4B2B0;" cx="256" cy="326.197" r="109.009"/>
<g>
	<path style="fill:#B3404A;" d="M256,448.809c-67.605,0-122.607-55.001-122.607-122.607S188.395,203.596,256,203.596
		s122.607,55.001,122.607,122.607S323.605,448.809,256,448.809z M256,230.783c-52.615,0-95.419,42.806-95.419,95.419
		s42.804,95.419,95.419,95.419s95.419-42.806,95.419-95.419S308.615,230.783,256,230.783z"/>
	<path style="fill:#B3404A;" d="M275.224,322.838l24.511-24.511c5.308-5.308,5.308-13.916,0-19.224
		c-5.307-5.308-13.912-5.308-19.226,0l-24.511,24.511l-24.511-24.511c-5.31-5.308-13.915-5.308-19.226,0
		c-5.308,5.308-5.308,13.916,0,19.224l24.511,24.511l-24.511,24.511c-5.308,5.308-5.308,13.916,0,19.224
		c2.655,2.655,6.134,3.982,9.612,3.982s6.957-1.328,9.612-3.982l24.511-24.511l24.511,24.511c2.655,2.655,6.134,3.982,9.612,3.982
		c3.479,0,6.957-1.328,9.612-3.982c5.308-5.308,5.308-13.916,0-19.224L275.224,322.838z"/>
</g>
<g>
</g>
<g>
</g>
<g>
</g>
<g>
</g>
<g>
</g>
<g>
</g>
<g>
</g>
<g>
</g>
<g>
</g>
<g>
</g>
<g>
</g>
<g>
</g>
<g>
</g>
<g>
</g>
<g>
</g>
</svg>
